<svg width="30" height="23" viewBox="0 0 30 23" fill="none" xmlns="http://www.w3.org/2000/svg">
<path d="M12.009 18.148C10.0029 18.1924 7.99579 18.1257 5.99703 17.948C5.99703 17.948 6.23203 14.359 7.87503 13.714C9.51803 13.069 9.91903 13.16 10.488 12.814L10.531 12.79V11.824C9.94191 11.2721 9.51398 10.5704 9.29303 9.79395C9.00219 9.50301 8.83459 9.11123 8.82503 8.69995C8.82766 8.42453 8.90658 8.15523 9.05303 7.92195C9.15303 5.89795 10.437 4.55895 12.012 4.55895C13.587 4.55895 14.875 5.89795 14.971 7.92195C15.1177 8.15514 15.1966 8.4245 15.199 8.69995C15.1895 9.11123 15.0219 9.50301 14.731 9.79395C14.5103 10.5694 14.0827 11.2701 13.494 11.821V12.788L13.536 12.812C14.107 13.156 14.508 13.064 16.151 13.712C17.794 14.36 18.027 17.946 18.027 17.946C16.0256 18.1234 14.0158 18.1901 12.007 18.146M19.569 0.652954H1.16203C1.02287 0.652954 0.885084 0.680379 0.756535 0.733661C0.627986 0.786943 0.511198 0.865038 0.412848 0.963481C0.314498 1.06192 0.236513 1.17879 0.183352 1.30739C0.130191 1.43598 0.102896 1.5738 0.103028 1.71295V21.84C0.103028 21.979 0.130427 22.1166 0.183659 22.2451C0.236891 22.3735 0.314912 22.4902 0.413262 22.5884C0.511613 22.6867 0.628364 22.7646 0.756842 22.8177C0.88532 22.8708 1.02301 22.8981 1.16203 22.898H19.569L29.102 11.776L19.569 0.652954Z" fill="#1E3F49"/>
</svg>
